<svg width="32" height="29" viewBox="0 0 32 29" fill="none" xmlns="http://www.w3.org/2000/svg">
<g id="Group 138">
<g id="&#240;&#159;&#166;&#134; icon &#34;heart&#34;">
<path id="Vector" d="M27.8409 4.21018C27.1568 3.50949 26.3445 2.95365 25.4504 2.57442C24.5563 2.19519 23.598 2 22.6302 2C21.6625 2 20.7042 2.19519 19.8101 2.57442C18.916 2.95365 18.1037 3.50949 17.4195 4.21018L15.9996 5.66368L14.5798 4.21018C13.1978 2.7955 11.3234 2.00073 9.36905 2.00073C7.41466 2.00073 5.54031 2.7955 4.15835 4.21018C2.77638 5.62487 2 7.54359 2 9.54426C2 11.5449 2.77638 13.4637 4.15835 14.8783L5.57823 16.3318L15.9996 27L26.4211 16.3318L27.8409 14.8783C28.5254 14.178 29.0684 13.3464 29.4389 12.4312C29.8093 11.5159 30 10.535 30 9.54426C30 8.55356 29.8093 7.57258 29.4389 6.65734C29.0684 5.7421 28.5254 4.91054 27.8409 4.21018Z" fill="#D9D9D9" fill-opacity="0.72" stroke="white" stroke-width="3" stroke-linecap="round" stroke-linejoin="round"/>
</g>
</g>
</svg>
